<svg width="48" height="82" viewBox="0 0 24 41" fill="none" xmlns="http://www.w3.org/2000/svg">
<path d="M12.0217 39.2281C14.3249 39.2281 16.192 37.361 16.192 35.0578C16.192 32.7548 14.3249 30.8877 12.0217 30.8877C9.71862 30.8877 7.85156 32.7548 7.85156 35.0578C7.85156 37.361 9.71862 39.2281 12.0217 39.2281Z" fill="#3E4958"/>
<path fill-rule="evenodd" clip-rule="evenodd" d="M12.0215 31.9137C10.2848 31.9137 8.87696 33.3215 8.87696 35.0582C8.87696 36.7949 10.2848 38.2027 12.0215 38.2027C13.7582 38.2027 15.166 36.7949 15.166 35.0582C15.166 33.3215 13.7582 31.9137 12.0215 31.9137ZM6.82568 35.0582C6.82568 32.1886 9.15194 29.8623 12.0215 29.8623C14.8911 29.8623 17.2174 32.1886 17.2174 35.0582C17.2174 37.9278 14.8911 40.254 12.0215 40.254C9.15194 40.254 6.82568 37.9278 6.82568 35.0582Z" fill="#FDFDFD"/>
<path fill-rule="evenodd" clip-rule="evenodd" d="M11.0105 22.4517H12.8704V34.3218H11.0105V22.4517Z" fill="#3E4958"/>
<path d="M12.0222 22.9642C18.0103 22.9642 22.8647 18.11 22.8647 12.1218C22.8647 6.13365 18.0103 1.2793 12.0222 1.2793C6.03404 1.2793 1.17969 6.13365 1.17969 12.1218C1.17969 18.11 6.03404 22.9642 12.0222 22.9642Z" fill="#1B5D59"/>
<path fill-rule="evenodd" clip-rule="evenodd" d="M12.0221 1.79218C6.31713 1.79218 1.69239 6.41694 1.69239 12.1219C1.69239 17.8267 6.31713 22.4515 12.0221 22.4515C17.727 22.4515 22.3517 17.8267 22.3517 12.1219C22.3517 6.41694 17.727 1.79218 12.0221 1.79218ZM0.666748 12.1219C0.666748 5.85055 5.7507 0.766602 12.0221 0.766602C18.2934 0.766602 23.3774 5.85055 23.3774 12.1219C23.3774 18.3933 18.2934 23.4772 12.0221 23.4772C5.7507 23.4772 0.666748 18.3933 0.666748 12.1219Z" fill="#1B5D59"/>
<path d="M12.0224 15.4585C13.8649 15.4585 15.3586 13.9647 15.3586 12.1223C15.3586 10.2798 13.8649 8.78613 12.0224 8.78613C10.1799 8.78613 8.68628 10.2798 8.68628 12.1223C8.68628 13.9647 10.1799 15.4585 12.0224 15.4585Z" fill="#F9FFFF"/>
</svg>
