<svg width="11" height="11" viewBox="0 0 11 11" fill="none" xmlns="http://www.w3.org/2000/svg">
<path d="M4.22496 5.16678L0.195258 1.13783C-0.0650859 0.877538 -0.0650859 0.455516 0.195258 0.195221C0.455601 -0.0650738 0.877701 -0.0650738 1.13804 0.195221L5.16774 4.22417L9.19529 0.197374C9.45563 -0.0629212 9.87773 -0.0629212 10.1381 0.197374C10.3984 0.457669 10.3984 0.879691 10.1381 1.13999L6.11053 5.16678L10.1378 9.19335C10.3982 9.45364 10.3982 9.87566 10.1378 10.136C9.8775 10.3963 9.4554 10.3963 9.19506 10.136L5.16774 6.10939L1.13827 10.1381C0.877931 10.3984 0.455831 10.3984 0.195487 10.1381C-0.0648563 9.87782 -0.0648563 9.4558 0.195487 9.1955L4.22496 5.16678Z" fill="white"/>
</svg>
