<svg xmlns="http://www.w3.org/2000/svg" width="24.720930503341833" height="21.372093216672738" fill="none">
<g class="currentLayer" style=""><g filter="url(#filter0_d_236:5091)" class="" id="svg_11">
<path d="M4.662712126922608,3.87257007932663 C3.948112126922606,4.55107007932663 3.1578121269226074,5.374070079326631 2.8784121269226084,5.93277007932663 C2.186112126922609,7.317470079326629 3.224612126922608,11.12517007932663 7.0322121269226106,15.27897007932663 C10.078412126922608,18.60207007932663 13.840012126922609,20.03297007932663 16.03231212692261,20.26377007932663 C17.340412126922608,20.40137007932663 18.566212126922608,19.216370079326637 19.342312126922607,18.238070079326633 C19.892312126922604,17.54477007932663 19.764112126922605,16.57377007932663 19.14871212692261,15.937770079326633 L17.630612126922607,14.36917007932663 C16.786012126922607,13.496470079326631 15.375712126922608,13.58387007932663 14.540812126922606,14.465770079326628 C14.183412126922608,14.84327007932663 13.839112126922608,15.164170079326631 13.609212126922607,15.27907007932663 C12.484012126922607,15.84177007932663 7.378512126922606,10.43297007932663 7.724512126922608,9.394370079326631 C7.9124121269226055,9.11257007932663 8.202112126922607,8.805370079326629 8.524712126922608,8.507170079326631 C9.465712126922607,7.6373700793266295 9.612612126922608,6.1307700793266315 8.685312126922607,5.2462700793266315 L7.287912126922606,3.91327007932663 C6.551012126922608,3.2104700793266296 5.401312126922608,3.171370079326632 4.662712126922608,3.87257007932663 z" fill="white" id="svg_13"/>
<path d="M4.662712126922608,3.87257007932663 C3.948112126922606,4.55107007932663 3.1578121269226074,5.374070079326631 2.8784121269226084,5.93277007932663 C2.186112126922609,7.317470079326629 3.224612126922608,11.12517007932663 7.0322121269226106,15.27897007932663 C10.078412126922608,18.60207007932663 13.840012126922609,20.03297007932663 16.03231212692261,20.26377007932663 C17.340412126922608,20.40137007932663 18.566212126922608,19.216370079326637 19.342312126922607,18.238070079326633 C19.892312126922604,17.54477007932663 19.764112126922605,16.57377007932663 19.14871212692261,15.937770079326633 L17.630612126922607,14.36917007932663 C16.786012126922607,13.496470079326631 15.375712126922608,13.58387007932663 14.540812126922606,14.465770079326628 C14.183412126922608,14.84327007932663 13.839112126922608,15.164170079326631 13.609212126922607,15.27907007932663 C12.484012126922607,15.84177007932663 7.378512126922606,10.43297007932663 7.724512126922608,9.394370079326631 C7.9124121269226055,9.11257007932663 8.202112126922607,8.805370079326629 8.524712126922608,8.507170079326631 C9.465712126922607,7.6373700793266295 9.612612126922608,6.1307700793266315 8.685312126922607,5.2462700793266315 L7.287912126922606,3.91327007932663 C6.551012126922608,3.2104700793266296 5.401312126922608,3.171370079326632 4.662712126922608,3.87257007932663 z" stroke="#000" stroke-width="2" id="svg_15"/>
</g><path fill-rule="evenodd" clip-rule="evenodd" d="M12.916912126922607,1.1252600793266294 C12.364612126922609,1.1252600793266294 11.916912126922607,1.5729700793266312 11.916912126922607,2.125270079326629 C11.916912126922607,2.6775700793266353 12.364612126922609,3.125270079326629 12.916912126922607,3.125270079326629 C14.291512126922608,3.125270079326629 16.045312126922607,3.9821700793266297 17.49861212692261,5.395170079326629 C18.948012126922606,6.804270079326628 19.878412126922605,8.552470079326628 19.878412126922605,10.08677007932663 C19.878412126922605,10.639070079326629 20.32611212692261,11.08677007932663 20.878412126922605,11.08677007932663 C21.430712126922607,11.08677007932663 21.878412126922605,10.639070079326629 21.878412126922605,10.08677007932663 C21.878412126922605,7.813370079326631 20.55881212692261,5.5808700793266315 18.892812126922607,3.9611700793266307 C17.23071212692261,2.34527007932663 15.003712126922608,1.1252600793266294 12.916912126922607,1.1252600793266294 zM12.916912126922607,4.58677007932663 C12.364612126922609,4.58677007932663 11.916912126922607,5.0344700793266295 11.916912126922607,5.58677007932663 C11.916912126922607,6.139070079326629 12.364612126922609,6.58677007932663 12.916912126922607,6.58677007932663 C12.998112126922614,6.58677007932663 13.253212126922612,6.625470079326632 13.636112126922608,6.779470079326629 C13.999212126922608,6.925670079326629 14.415812126922606,7.151370079326629 14.815012126922607,7.459770079326632 C15.612312126922607,8.07587007932663 16.287312126922608,8.97587007932663 16.423012126922607,10.197270079326628 C16.484012126922607,10.746170079326626 16.978412126922606,11.14167007932663 17.527312126922602,11.08067007932663 C18.076212126922606,11.01967007932663 18.471712126922604,10.525270079326631 18.410712126922608,9.976370079326628 C18.200312126922604,8.08237007932663 17.144512126922606,6.732270079326632 16.037912126922606,5.877270079326628 C15.485212126922608,5.450170079326629 14.906712126922606,5.13497007932663 14.382712126922609,4.924170079326629 C13.878612126922611,4.72127007932663 13.354812126922614,4.58677007932663 12.916912126922607,4.58677007932663 z" fill="#3E4958" id="svg_4" class=""/></g></svg>