<svg width="54" height="54" viewBox="0 0 54 54" fill="none" xmlns="http://www.w3.org/2000/svg">
<g filter="url(#filter0_d_266:1835)">
<path d="M36.119 12.953C34.8483 11.6823 32.7882 11.6823 31.5175 12.953L18.6178 25.8527C18.5294 25.9411 18.4655 26.0507 18.4322 26.171L16.7359 32.2952C16.6661 32.5463 16.737 32.8152 16.9211 32.9997C17.1056 33.1838 17.3745 33.2547 17.6256 33.1852L23.7498 31.4886C23.8701 31.4553 23.9797 31.3914 24.0681 31.303L36.9675 18.403C38.2362 17.1315 38.2362 15.073 36.9675 13.8015L36.119 12.953Z" fill="white"/>
<path d="M36.119 12.953C34.8483 11.6823 32.7882 11.6823 31.5175 12.953L18.6178 25.8527C18.5294 25.9411 18.4655 26.0507 18.4322 26.171L16.7359 32.2952C16.6661 32.5463 16.737 32.8152 16.9211 32.9997C17.1056 33.1838 17.3745 33.2547 17.6256 33.1852L23.7498 31.4886C23.8701 31.4553 23.9797 31.3914 24.0681 31.303L36.9675 18.403C38.2362 17.1315 38.2362 15.073 36.9675 13.8015L36.119 12.953Z" stroke="#3E4958" stroke-width="2" stroke-linecap="round"/>
</g>
<defs>
<filter id="filter0_d_266:1835" x="0.709473" y="0" width="53.2095" height="53.2119" filterUnits="userSpaceOnUse" color-interpolation-filters="sRGB">
<feFlood flood-opacity="0" result="BackgroundImageFix"/>
<feColorMatrix in="SourceAlpha" type="matrix" values="0 0 0 0 0 0 0 0 0 0 0 0 0 0 0 0 0 0 127 0" result="hardAlpha"/>
<feOffset dy="4"/>
<feGaussianBlur stdDeviation="7.5"/>
<feColorMatrix type="matrix" values="0 0 0 0 0 0 0 0 0 0 0 0 0 0 0 0 0 0 0.15 0"/>
<feBlend mode="normal" in2="BackgroundImageFix" result="effect1_dropShadow_266:1835"/>
<feBlend mode="normal" in="SourceGraphic" in2="effect1_dropShadow_266:1835" result="shape"/>
</filter>
</defs>
</svg>
