<svg width="11" height="10" viewBox="0 0 11 10" fill="none" xmlns="http://www.w3.org/2000/svg">
<path d="M4.09615 1.39064C4.54518 0.00867295 6.50029 0.00867105 6.94932 1.39064L7.09944 1.85265C7.30025 2.47069 7.87618 2.88913 8.52602 2.88913H9.01182C10.4649 2.88913 11.0691 4.74855 9.89349 5.60265L9.50048 5.8882C8.97475 6.27016 8.75476 6.94721 8.95557 7.56524L9.10569 8.02726C9.55472 9.40922 7.973 10.5584 6.79743 9.70431L6.40442 9.41877C5.87868 9.0368 5.16679 9.0368 4.64106 9.41877L4.24805 9.70431C3.07248 10.5584 1.49075 9.40923 1.93978 8.02726L2.0899 7.56525C2.29071 6.94721 2.07072 6.27016 1.54499 5.88819L1.15198 5.60265C-0.0235894 4.74855 0.580573 2.88913 2.03366 2.88913H2.51945C3.16929 2.88913 3.74522 2.47069 3.94603 1.85265L4.09615 1.39064Z" fill="#FFB800"/>
</svg>
