<svg width="26" height="17" viewBox="0 0 26 17" fill="none" xmlns="http://www.w3.org/2000/svg">
<path d="M25.2872 12.965V12.6539H25.2088L25.118 12.8676L25.0277 12.6539H24.9487V12.965H25.0045V12.7304L25.0893 12.9329H25.1471L25.232 12.7299V12.965H25.2872ZM24.7893 12.965V12.707H24.89V12.6544H24.6334V12.707H24.734V12.965H24.7893Z" fill="#F79410"/>
<path d="M16.3855 14.3009H9.60874V1.7159H16.3855V14.3009Z" fill="#FF5F00"/>
<path d="M10.0422 8.00592C10.0422 5.453 11.1989 3.17893 13.0003 1.71342C11.683 0.641776 10.0205 0.00214499 8.21375 0.00214499C3.93643 0.00214499 0.469177 3.5855 0.469177 8.00592C0.469177 12.4263 3.93643 16.0097 8.21375 16.0097C10.0205 16.0097 11.683 15.3701 13.0003 14.2984C11.1989 12.8329 10.0422 10.5588 10.0422 8.00592Z" fill="#EB001B"/>
<path d="M25.5284 8.00377C25.5284 12.4242 22.0611 16.0076 17.7838 16.0076C15.9771 16.0076 14.3146 15.3679 12.9968 14.2963C14.7987 12.8308 15.9554 10.5567 15.9554 8.00377C15.9554 5.45085 14.7987 3.17678 12.9968 1.71127C14.3146 0.639626 15.9771 -4.59648e-06 17.7838 -4.59648e-06C22.0611 -4.59648e-06 25.5284 3.58335 25.5284 8.00377Z" fill="#F79E1B"/>
</svg>
