<svg width="333" height="15" viewBox="0 0 333 15" fill="none" xmlns="http://www.w3.org/2000/svg">
<path d="M0 0H333V15L322.594 8.70968L312.188 15L301.781 8.70968L291.375 15L280.969 8.70968L270.562 15L260.156 8.70968L249.75 15L239.344 8.70968L228.938 15L218.531 8.70968L208.125 15L197.719 8.70968L187.312 15L176.906 8.70968L166.5 15L156.094 8.70968L145.688 15L135.281 8.70968L124.875 15L114.469 8.70968L104.062 15L93.6562 8.70968L83.25 15L72.8438 8.70968L62.4375 15L52.0312 8.70968L41.625 15L31.2188 8.70968L20.8125 15L10.4062 8.70968L0 15V0Z" fill="white"/>
</svg>
