<svg width="30" height="10" viewBox="0 0 30 10" fill="none" xmlns="http://www.w3.org/2000/svg">
<path fill-rule="evenodd" clip-rule="evenodd" d="M11.4704 0.158485L7.5702 9.06907H5.03435L3.11868 1.967C3.00842 1.53137 2.89817 1.37296 2.55362 1.18815C1.96101 0.884532 1.01006 0.594113 0.169373 0.422502L0.2245 0.158485H4.31769C4.8414 0.158485 5.30998 0.488506 5.42024 1.06934L6.44009 6.21768L8.94838 0.158485H11.4704ZM21.4357 6.1648C21.4439 4.75559 20.2229 4.14404 19.247 3.6553C18.5957 3.3291 18.0536 3.0576 18.0591 2.64017C18.0729 2.32335 18.3899 1.98013 19.079 1.88772C19.4235 1.84812 20.3745 1.80852 21.4495 2.28375L21.8767 0.396026C21.2979 0.198013 20.5536 0 19.6303 0C17.2598 0 15.5784 1.21448 15.5646 2.94379C15.5508 4.22428 16.7636 4.93712 17.6732 5.37275C18.6104 5.80838 18.9274 6.0856 18.9274 6.48163C18.9136 7.07566 18.1832 7.33968 17.4941 7.35288C16.3024 7.36585 15.603 7.04743 15.056 6.7984L15.0271 6.78524L14.5861 8.73897C15.1512 8.98979 16.1848 9.201 17.2598 9.2142C19.7819 9.2142 21.4219 8.01293 21.4357 6.1648ZM27.7186 9.06907H29.9374L27.9942 0.158485H25.9407C25.4721 0.158485 25.0863 0.409301 24.9209 0.805327L21.31 9.05587H23.8321L24.3283 7.72258H27.4154L27.7186 9.06907ZM25.0311 5.91389L26.299 2.57407L27.0294 5.91389H25.0311ZM12.9167 9.06907L14.9013 0.158485H12.5033L10.5187 9.06907H12.9167Z" fill="#1A1F71"/>
</svg>
