<svg width="18" height="18" viewBox="0 0 18 18" fill="none" xmlns="http://www.w3.org/2000/svg">
<path d="M12.211 8.03928C12.2634 8.09153 12.3049 8.1536 12.3333 8.22194C12.3616 8.29028 12.3762 8.36354 12.3762 8.43753C12.3762 8.51152 12.3616 8.58478 12.3333 8.65312C12.3049 8.72145 12.2634 8.78353 12.211 8.83578L8.83597 12.2108C8.78372 12.2632 8.72165 12.3047 8.65331 12.3331C8.58497 12.3614 8.51171 12.376 8.43772 12.376C8.36373 12.376 8.29047 12.3614 8.22214 12.3331C8.1538 12.3047 8.09172 12.2632 8.03947 12.2108L6.35197 10.5233C6.29967 10.471 6.25819 10.4089 6.22988 10.3406C6.20158 10.2722 6.18701 10.199 6.18701 10.125C6.18701 10.0511 6.20158 9.97783 6.22988 9.9095C6.25819 9.84117 6.29967 9.77908 6.35197 9.72678C6.45759 9.62116 6.60085 9.56182 6.75022 9.56182C6.82418 9.56182 6.89742 9.57639 6.96575 9.60469C7.03409 9.63299 7.09617 9.67448 7.14847 9.72678L8.43772 11.0172L11.4145 8.03928C11.4667 7.98689 11.5288 7.94533 11.5971 7.91698C11.6655 7.88862 11.7387 7.87402 11.8127 7.87402C11.8867 7.87402 11.96 7.88862 12.0283 7.91698C12.0966 7.94533 12.1587 7.98689 12.211 8.03928Z" fill="black"/>
<path d="M3.9375 0C4.08668 0 4.22976 0.0592632 4.33525 0.164752C4.44074 0.270242 4.5 0.413316 4.5 0.5625V1.125H13.5V0.5625C13.5 0.413316 13.5593 0.270242 13.6648 0.164752C13.7702 0.0592632 13.9133 0 14.0625 0C14.2117 0 14.3548 0.0592632 14.4602 0.164752C14.5657 0.270242 14.625 0.413316 14.625 0.5625V1.125H15.75C16.3467 1.125 16.919 1.36205 17.341 1.78401C17.7629 2.20597 18 2.77826 18 3.375V15.75C18 16.3467 17.7629 16.919 17.341 17.341C16.919 17.7629 16.3467 18 15.75 18H2.25C1.65326 18 1.08097 17.7629 0.65901 17.341C0.237053 16.919 0 16.3467 0 15.75V3.375C0 2.77826 0.237053 2.20597 0.65901 1.78401C1.08097 1.36205 1.65326 1.125 2.25 1.125H3.375V0.5625C3.375 0.413316 3.43426 0.270242 3.53975 0.164752C3.64524 0.0592632 3.78832 0 3.9375 0V0ZM1.125 4.5V15.75C1.125 16.0484 1.24353 16.3345 1.4545 16.5455C1.66548 16.7565 1.95163 16.875 2.25 16.875H15.75C16.0484 16.875 16.3345 16.7565 16.5455 16.5455C16.7565 16.3345 16.875 16.0484 16.875 15.75V4.5H1.125Z" fill="black"/>
</svg>
