<svg width="35" height="35" viewBox="0 0 35 35" fill="none" xmlns="http://www.w3.org/2000/svg">
<path d="M33.3594 15.3125C33.1543 14.9707 31.1302 14.0964 31.1302 14.0964C31.4822 13.9146 31.7229 13.877 31.7229 13.125C31.7229 12.3047 31.7188 12.0312 31.1719 12.0312H29.3166C29.3091 12.0148 29.3009 11.9978 29.2934 11.9807C28.0957 9.36523 27.9351 8.7042 26.1488 7.81416C23.7528 6.62266 19.2609 6.5625 17.5 6.5625C15.7391 6.5625 11.2472 6.62266 8.85322 7.81416C7.06494 8.70283 7.10938 9.16016 5.70869 11.9807C5.70869 11.9882 5.69434 12.008 5.68135 12.0312H3.82402C3.28125 12.0312 3.27715 12.3047 3.27715 13.125C3.27715 13.877 3.51777 13.9146 3.86982 14.0964C3.86982 14.0964 1.91406 15.0391 1.64062 15.3125C1.36719 15.5859 1.09375 17.5 1.09375 20.7812C1.09375 24.0625 1.36719 27.3438 1.36719 27.3438H2.1834C2.1834 28.3008 2.32422 28.4375 2.73438 28.4375H8.20312C8.61328 28.4375 8.75 28.3008 8.75 27.3438H26.25C26.25 28.3008 26.3867 28.4375 26.7969 28.4375H32.4023C32.6758 28.4375 32.8125 28.2324 32.8125 27.3438H33.6328C33.6328 27.3438 33.9062 23.9941 33.9062 20.7812C33.9062 17.5684 33.5645 15.6543 33.3594 15.3125ZM8.5627 18.3846C7.31768 18.5207 6.0663 18.5905 4.81387 18.5938C3.41797 18.5938 3.37012 18.6833 3.27168 17.8117C3.23465 17.4128 3.24636 17.0108 3.30654 16.6147L3.34961 16.4062H3.55469C4.375 16.4062 5.14541 16.4411 6.6001 16.8697C7.33997 17.0917 8.03587 17.44 8.65703 17.8992C8.95508 18.1152 9.02344 18.3203 9.02344 18.3203L8.5627 18.3846ZM25.4584 23.3064L25.1562 24.0625H9.84375C9.84375 24.0625 9.87041 24.0208 9.50195 23.2982C9.22852 22.7637 9.57031 22.4219 10.111 22.2277C11.1583 21.8504 14.2188 20.7812 17.5 20.7812C20.7812 20.7812 23.9025 21.7027 24.917 22.2277C25.293 22.4219 25.7599 22.5586 25.4584 23.3105V23.3064ZM7.89004 13.9733C7.66923 13.9861 7.44792 13.9877 7.22695 13.9781C7.40537 13.6609 7.50449 13.3075 7.67881 12.9384C8.22568 11.7763 8.85117 10.461 9.96475 9.90664C11.5739 9.10547 14.9092 8.74453 17.5 8.74453C20.0908 8.74453 23.4261 9.10273 25.0353 9.90664C26.1488 10.461 26.7716 11.777 27.3212 12.9384C27.4969 13.3109 27.5946 13.6671 27.7778 13.9863C27.6411 13.9938 27.4839 13.9863 27.1086 13.9733H7.89004ZM31.66 17.809C31.5137 18.6621 31.6504 18.5938 30.1861 18.5938C28.9337 18.5905 27.6823 18.5207 26.4373 18.3846C26.2425 18.3497 26.1871 18.0209 26.343 17.8992C26.961 17.4349 27.6578 17.0862 28.3999 16.8697C29.8546 16.4411 30.6735 16.3837 31.4822 16.4124C31.5365 16.4145 31.5882 16.4366 31.6272 16.4744C31.6662 16.5123 31.6898 16.5632 31.6935 16.6175C31.7321 17.0154 31.7208 17.4166 31.66 17.8117V17.809Z" fill="black"/>
</svg>
