<svg xmlns="http://www.w3.org/2000/svg" width="40" height="33" fill="none"><rect id="backgroundrect" width="100%" height="100%" x="0" y="0" fill="none" stroke="none"/>













<defs>
<filter id="filter0_d" x="0" y="0" width="60" height="60" filterUnits="userSpaceOnUse" color-interpolation-filters="sRGB">
<feFlood flood-opacity="0" result="BackgroundImageFix"/>
<feColorMatrix in="SourceAlpha" type="matrix" values="0 0 0 0 0 0 0 0 0 0 0 0 0 0 0 0 0 0 127 0" result="hardAlpha"/>
<feOffset dy="4"/>
<feGaussianBlur stdDeviation="10"/>
<feColorMatrix type="matrix" values="0 0 0 0 0 0 0 0 0 0 0 0 0 0 0 0 0 0 0.3 0"/>
<feBlend mode="normal" in2="BackgroundImageFix" result="effect1_dropShadow"/>
<feBlend mode="normal" in="SourceGraphic" in2="effect1_dropShadow" result="shape"/>
</filter>
<filter id="filter1_d" x="2" y="2" width="56" height="56" filterUnits="userSpaceOnUse" color-interpolation-filters="sRGB">
<feFlood flood-opacity="0" result="BackgroundImageFix"/>
<feColorMatrix in="SourceAlpha" type="matrix" values="0 0 0 0 0 0 0 0 0 0 0 0 0 0 0 0 0 0 127 0" result="hardAlpha"/>
<feOffset dy="4"/>
<feGaussianBlur stdDeviation="8"/>
<feColorMatrix type="matrix" values="0 0 0 0 0 0 0 0 0 0 0 0 0 0 0 0 0 0 0.1 0"/>
<feBlend mode="normal" in2="BackgroundImageFix" result="effect1_dropShadow"/>
<feBlend mode="normal" in="SourceGraphic" in2="effect1_dropShadow" result="shape"/>
</filter>
</defs>
<g class="currentLayer" style=""><title>Layer 1</title><rect x="0" y="0" width="40" height="40" fill="white" fill-opacity="0.01" id="svg_1" class=""/><g filter="url(#filter0_d)" id="svg_2" class="">
<path d="M30,20 C30,25.5228 25.522799999999997,30 20,30 C14.4772,30 10,25.5228 10,20 C10,14.4772 14.4772,10 20,10 C25.522799999999997,10 30,14.4772 30,20 z" fill="white" id="svg_3"/>
</g><g filter="url(#filter1_d)" id="svg_4" class="">
<path fill-rule="evenodd" clip-rule="evenodd" d="M32,20 C32,26.6274 26.6274,32 20,32 C13.372599999999998,32 8,26.6274 8,20 C8,13.372599999999998 13.372599999999998,8 20,8 C26.6274,8 32,13.372599999999998 32,20 zM20,30 C25.522799999999997,30 30,25.5228 30,20 C30,14.4772 25.522799999999997,10 20,10 C14.4772,10 10,14.4772 10,20 C10,25.5228 14.4772,30 20,30 z" fill="white" id="svg_5"/>
</g><path fill-rule="evenodd" clip-rule="evenodd" d="M29.756500000000003,17.7966 C28.752899999999997,13.3339 24.7658,10 20,10 C14.4772,10 10,14.4772 10,20 C10,25.5228 14.4772,30 20,30 C24.7658,30 28.752899999999997,26.6661 29.756500000000003,22.2034 V17.7966 z" fill="#4B545A" id="svg_6" class=""/><path fill-rule="evenodd" clip-rule="evenodd" d="M10.0776,18.7478 C10.3046,16.9312 11.018699999999999,15.266100000000002 12.0852,13.8872 C12.834499999999998,14.086099999999998 13.6267,14.184899999999999 14.481200000000001,14.184899999999999 C14.582,14.184899999999999 14.6828,14.178 14.7836,14.171 C14.859200000000001,14.1659 14.9348,14.160699999999999 15.0104,14.1584 H15.0156 V19.4347 C12.776,19.4347 10.744499999999999,18.9315 10.0776,18.7478 z" fill="white" id="svg_7" class=""/><path fill-rule="evenodd" clip-rule="evenodd" d="M15.016100000000002,24.7182 V19.4366 C17.3066,19.4366 19.9334,18.7491 20.167,18.6879 C20.1779,18.6851 20.1836,18.6836 20.1838,18.6836 V23.9652 C20.1838,23.9652 17.2316,24.7182 15.016100000000002,24.7182 z" fill="white" id="svg_8" class=""/><path fill-rule="evenodd" clip-rule="evenodd" d="M20.1676,29.9987 C20.1118,29.999699999999997 20.0559,30.000100000000003 19.9999,30.000100000000003 C19.189,30.000100000000003 18.4007,29.903599999999997 17.6458,29.721400000000003 C18.9618,29.515700000000002 20.0074,29.2421 20.1508,29.204500000000003 C20.1617,29.201700000000002 20.1674,29.200200000000002 20.1676,29.200200000000002 V29.9987 z" fill="white" id="svg_9" class=""/><path fill-rule="evenodd" clip-rule="evenodd" d="M20.1677,10.0014 C20.1119,10.000499999999999 20.056,10 20,10 C18.1786,10 16.4709,10.486999999999998 15,11.337800000000001 V14.034600000000001 C17.2155,14.034600000000001 20.1677,13.281600000000001 20.1677,13.281600000000001 V10.0014 z" fill="white" id="svg_10" class=""/><path d="M25.3468,12.632200000000001 C25.2742,12.632200000000001 25.2119,12.6216 25.1393,12.6216 C23.4634,12.6216 21.8031,12.9557 20.1843,13.311 V18.688 C20.1843,18.688 21.7824,17.935 25.351999999999997,17.935 V12.632200000000001 H25.3468 z" fill="white" id="svg_11" class=""/><path fill-rule="evenodd" clip-rule="evenodd" d="M15.0109,28.6684 C13.250800000000002,27.6532 11.829,26.1175 10.9556,24.2715 C11.866700000000002,24.4798 13.2848,24.7176 15.0109,24.7176 V28.6684 z" fill="white" id="svg_12" class=""/><path d="M20.1761,29.177100000000003 C21.8831,28.800600000000003 23.5071,28.4559 25.131,28.4559 C25.203699999999998,28.4559 25.271099999999997,28.466500000000003 25.3386,28.466500000000003 V23.2061 C22.018,23.2061 20.1709,23.9591 20.1709,23.9591 V29.177100000000003 H20.1761 z" fill="white" id="svg_13" class=""/><path fill-rule="evenodd" clip-rule="evenodd" d="M29.264000000000003,23.7722 C28.350499999999997,23.5029 26.980800000000002,23.2103 25.339100000000002,23.2103 V17.9287 C27.3782,17.9287 28.9191,18.3264 29.7648,18.6128 V22.1655 C29.6425,22.7198 29.4741,23.2567 29.264000000000003,23.7722 z" fill="white" id="svg_14" class=""/><path fill-rule="evenodd" clip-rule="evenodd" d="M26.908900000000003,12.770299999999999 C26.4217,12.7152 25.896099999999997,12.6816 25.339100000000002,12.6816 V11.543 C25.903,11.8997 26.428800000000003,12.3113 26.908900000000003,12.770299999999999 z" fill="white" id="svg_15" class=""/></g></svg>