<svg width="40" height="31" viewBox="0 0 40 31" fill="none" xmlns="http://www.w3.org/2000/svg">
<path d="M20 8.71875C16.6863 8.71875 14 11.7546 14 15.5C14 19.2448 16.6863 22.2812 20 22.2812C23.3125 22.2812 26 19.246 26 15.5C26 11.7546 23.3137 8.71875 20 8.71875ZM22.5 18.8906C22.5 19.1582 22.2763 19.375 22 19.375H18C17.7237 19.375 17.5 19.1582 17.5 18.8906V17.9219C17.5 17.6543 17.7237 17.4375 18 17.4375H19V14.0808L18.9706 14.0996C18.916 14.1349 18.8548 14.1594 18.7904 14.1717C18.726 14.1841 18.6597 14.184 18.5953 14.1715C18.5309 14.1591 18.4697 14.1344 18.4152 14.099C18.3607 14.0636 18.3139 14.0181 18.2775 13.9651L17.7225 13.1593C17.6861 13.1064 17.6607 13.047 17.648 12.9846C17.6352 12.9222 17.6353 12.858 17.6482 12.7957C17.6611 12.7333 17.6865 12.674 17.7231 12.6212C17.7596 12.5684 17.8066 12.523 17.8612 12.4878L18.8194 11.869C19.0657 11.7099 19.3552 11.625 19.6513 11.625H20.5C20.7763 11.625 21 11.8418 21 12.1094V17.4375H22C22.2763 17.4375 22.5 17.6543 22.5 17.9219V18.8906ZM38 3.875H2C0.895625 3.875 0 4.74264 0 5.8125V25.1875C0 26.2574 0.895625 27.125 2 27.125H38C39.1044 27.125 40 26.2574 40 25.1875V5.8125C40 4.74264 39.1044 3.875 38 3.875ZM37 20.3438C34.7906 20.3438 33 22.0784 33 24.2188H7C7 22.0784 5.20937 20.3438 3 20.3438V10.6562C5.20937 10.6562 7 8.92158 7 6.78125H33C33 8.92158 34.7906 10.6562 37 10.6562V20.3438Z" fill="black"/>
</svg>
