<svg width="24" height="24" viewBox="0 0 24 24" fill="none" xmlns="http://www.w3.org/2000/svg">
<path d="M3.68496 18.783L11.565 4.77496C11.6086 4.69801 11.6718 4.63401 11.7482 4.58948C11.8247 4.54495 11.9115 4.52148 12 4.52148C12.0884 4.52148 12.1753 4.54495 12.2517 4.58948C12.3281 4.63401 12.3914 4.69801 12.435 4.77496L20.315 18.783C20.3651 18.8728 20.3863 18.9758 20.3757 19.0781C20.3651 19.1804 20.3232 19.277 20.2558 19.3546C20.1883 19.4322 20.0986 19.4872 19.9987 19.5119C19.8989 19.5367 19.7939 19.5301 19.698 19.493L12.181 16.571C12.0645 16.5257 11.9354 16.5257 11.819 16.571L4.30196 19.494C4.20593 19.5313 4.1007 19.538 4.00069 19.5133C3.90067 19.4885 3.81075 19.4334 3.74322 19.3556C3.67568 19.2778 3.63384 19.181 3.62342 19.0785C3.61299 18.976 3.63449 18.8728 3.68496 18.783V18.783Z" stroke="black" stroke-width="1.5" stroke-linecap="round" stroke-linejoin="round"/>
</svg>
